<?xml version="1.0" encoding="utf-8"?>
<!-- Generator: Adobe Illustrator 23.0.1, SVG Export Plug-In . SVG Version: 6.00 Build 0)  -->
<svg version="1.1" id="Calque_1" xmlns="http://www.w3.org/2000/svg" xmlns:xlink="http://www.w3.org/1999/xlink" x="0px" y="0px"
	 viewBox="0 0 150 150" style="enable-background:new 0 0 150 150;" xml:space="preserve">
<style type="text/css">
	.st0{fill:#FFFFFF;}
	.st1{fill:#3B5998;}
</style>
<title>Plan de travail 1</title>
<g>
	<rect x="41.1" y="23.8" class="st0" width="70.8" height="108"/>
	<path class="st1" d="M-4.3-4v158.3H154V-4H-4.3z M97.2,46.9h-1.1c-2.7,0-5.3-0.1-8,0c-3.6,0.1-6.3,1.5-6.5,6.1
		c-0.1,3.3-0.1,11-0.1,11s8.6,0,12.3,0h3c-0.7,5.3-1.3,10.4-2,15.5H81.7v38.7H65.6V79.4H52.5V64h13.2v-1.2c0-3.1-0.1-6.2,0-9.3
		c0-2,0.2-4,0.5-5.9c0.7-4.6,3.2-8.8,6.9-11.6c3.4-2.3,7.4-3.6,11.5-3.6c2.7-0.1,5.5,0.1,8.2,0.2c1.5,0.1,3,0.3,4.4,0.4V46.9z"/>
</g>
</svg>
