<svg id="Calque_1" data-name="Calque 1" xmlns="http://www.w3.org/2000/svg" viewBox="0 0 150 150"><defs><style>.cls-1{fill:#3b5998;}</style></defs><title>Plan de travail 1</title><path class="cls-1" d="M-4.27-4V154.27H154V-4ZM97.24,46.89h-1.1c-2.66,0-5.31-.07-8,0-3.64.13-6.33,1.52-6.46,6.06-.09,3.32-.13,11-.13,11s8.55,0,12.27,0h3c-.69,5.29-1.35,10.37-2,15.5H81.69v38.71H65.63V79.37H52.49V64H65.71V62.79c0-3.11-.07-6.2,0-9.3a40.42,40.42,0,0,1,.48-5.93A17.27,17.27,0,0,1,73.13,36a20.1,20.1,0,0,1,11.54-3.57c2.73-.06,5.46.08,8.18.2,1.49.07,3,.28,4.39.42Z"/></svg>