<svg xmlns="http://www.w3.org/2000/svg" viewBox="0 0 158.3 158.3"><defs><style>.cls-1{fill:#3b5998;}.cls-2{fill:#fff;}</style></defs><title>Fichier 1</title><g id="Calque_2" data-name="Calque 2"><g id="Calque_1-2" data-name="Calque 1"><rect class="cls-1" x="45.4" y="27.8" width="70.8" height="108"/><path class="cls-2" d="M0,0V158.3H158.3V0ZM101.5,50.9h-1.1c-2.7,0-5.3-.1-8,0-3.6.1-6.3,1.5-6.5,6.1-.1,3.3-.1,11-.1,11h15.3c-.7,5.3-1.3,10.4-2,15.5H86v38.7H69.9V83.4H56.8V68H70V66.8c0-3.1-.1-6.2,0-9.3a38.08,38.08,0,0,1,.5-5.9A18,18,0,0,1,77.4,40a20.58,20.58,0,0,1,11.5-3.6c2.7-.1,5.5.1,8.2.2,1.5.1,3,.3,4.4.4Z"/></g></g></svg>