<svg xmlns="http://www.w3.org/2000/svg" viewBox="0 0 158.3 158.3"><defs><style>.cls-1{fill:#6f94ce;}.cls-2{fill:#fff;}.cls-3{fill:#fdfeff;}</style></defs><title>Fichier 1</title><g id="Calque_2" data-name="Calque 2"><g id="Calque_1-2" data-name="Calque 1"><rect class="cls-1" x="24.3" y="24.8" width="108" height="108"/><path class="cls-2" d="M98.1,48.7h9.4a2.22,2.22,0,0,1,2.2,2.2v9.4a2.22,2.22,0,0,1-2.2,2.2H98.1a2.22,2.22,0,0,1-2.2-2.2V50.9A2.16,2.16,0,0,1,98.1,48.7Z"/><path class="cls-3" d="M0,0V158.3H158.3V0ZM118.2,106A12.25,12.25,0,0,1,106,118.2H52.3A12.25,12.25,0,0,1,40.1,106V52.3A12.25,12.25,0,0,1,52.3,40.1H106a12.25,12.25,0,0,1,12.2,12.2Z"/><path class="cls-2" d="M79.2,94.6A15.47,15.47,0,1,0,63.7,79,15.51,15.51,0,0,0,79.2,94.6Z"/><path class="cls-2" d="M102.9,79.1a23.75,23.75,0,0,1-47.5,0,21,21,0,0,1,.7-5.6H48.4V106a4,4,0,0,0,3.9,3.9H106a4,4,0,0,0,4-3.9V73.5h-7.8A21,21,0,0,1,102.9,79.1Z"/></g></g></svg>