<svg id="Calque_1" data-name="Calque 1" xmlns="http://www.w3.org/2000/svg" viewBox="0 0 150 150"><defs><style>.cls-1{fill:#818284;}</style></defs><title>Plan de travail 1</title><rect class="cls-1" x="91.59" y="44.67" width="13.79" height="13.79" rx="2.18"/><path class="cls-1" d="M-4.27-4V154.27H154V-4ZM113.92,102a12.22,12.22,0,0,1-12.22,12.21H48A12.21,12.21,0,0,1,35.81,102V48.29A12.21,12.21,0,0,1,48,36.08H101.7a12.22,12.22,0,0,1,12.22,12.21Z"/><path class="cls-1" d="M74.86,90.6A15.49,15.49,0,0,0,90.33,75.13,15.46,15.46,0,0,0,60.47,69.5a15.12,15.12,0,0,0-1.07,5.63A15.49,15.49,0,0,0,74.86,90.6Z"/><path class="cls-1" d="M98.6,75.13a23.74,23.74,0,1,1-47.48,0,23.21,23.21,0,0,1,.68-5.63H44.08V102A4,4,0,0,0,48,105.92H101.7a4,4,0,0,0,4-3.94V69.5H97.93A23.71,23.71,0,0,1,98.6,75.13Z"/></svg>