<?xml version="1.0" encoding="utf-8"?>
<!-- Generator: Adobe Illustrator 23.0.1, SVG Export Plug-In . SVG Version: 6.00 Build 0)  -->
<svg version="1.1" id="Calque_1" xmlns="http://www.w3.org/2000/svg" xmlns:xlink="http://www.w3.org/1999/xlink" x="0px" y="0px"
	 viewBox="0 0 150 150" style="enable-background:new 0 0 150 150;" xml:space="preserve">
<style type="text/css">
	.st0{fill:#FFFFFF;}
	.st1{fill:#6F94CE;}
</style>
<title>Plan de travail 1</title>
<g>
	<rect x="20" y="20.8" class="st0" width="108" height="108"/>
	<path class="st1" d="M93.8,44.7h9.4c1.2,0,2.2,1,2.2,2.2v9.4c0,1.2-1,2.2-2.2,2.2h-9.4c-1.2,0-2.2-1-2.2-2.2v-9.4
		C91.6,45.6,92.6,44.7,93.8,44.7z"/>
	<path class="st1" d="M-4.3-4v158.3H154V-4H-4.3z M113.9,102c0,6.7-5.5,12.2-12.2,12.2H48c-6.7,0-12.2-5.5-12.2-12.2V48.3
		c0-6.7,5.5-12.2,12.2-12.2h53.7c6.7,0,12.2,5.5,12.2,12.2V102z"/>
	<path class="st1" d="M74.9,90.6c8.5,0,15.5-6.9,15.5-15.5c0-8.5-6.9-15.5-15.5-15.5c-6.4,0-12.1,3.9-14.4,9.8
		c-0.7,1.8-1.1,3.7-1.1,5.6C59.4,83.7,66.3,90.6,74.9,90.6z"/>
	<path class="st1" d="M98.6,75.1c0,13.1-10.6,23.7-23.7,23.7S51.1,88.2,51.1,75.1c0-1.9,0.2-3.8,0.7-5.6h-7.7V102
		c0,2.1,1.8,3.9,3.9,3.9h53.7c2.2,0,4-1.8,4-3.9V69.5h-7.8C98.4,71.3,98.6,73.2,98.6,75.1z"/>
</g>
</svg>
