<svg xmlns="http://www.w3.org/2000/svg" viewBox="0 0 201.56 105.24"><defs><style>.cls-1{fill:#fff;}.cls-2{fill:#818284;}</style></defs><title>Fichier 2</title><g id="Calque_2" data-name="Calque 2"><g id="LOGOS"><g id="logo-2"><path class="cls-1" d="M.19,105V91.76H3.13v10.72H8.29V105Z"/><path class="cls-1" d="M9.47,105l4.08-13.24H17.1L21.18,105H18.06l-.81-3.15h-4l-.8,3.15Zm4.72-6.7-.31,1.22h2.77l-.29-1.22c-.19-.66-.37-1.37-.55-2.11s-.34-1.46-.51-2.15h-.09c-.15.7-.32,1.42-.49,2.16S14.38,97.64,14.19,98.3Z"/><path class="cls-1" d="M28,105V91.76h4.46a11.14,11.14,0,0,1,1.89.15,4.42,4.42,0,0,1,1.52.54,2.93,2.93,0,0,1,1,1,3.13,3.13,0,0,1,.37,1.58,3.35,3.35,0,0,1-.12.89,3.89,3.89,0,0,1-.34.84,4,4,0,0,1-.53.69,2,2,0,0,1-.71.44V98a3.57,3.57,0,0,1,.92.38,3,3,0,0,1,.74.64,3,3,0,0,1,.5.9,3.63,3.63,0,0,1,.18,1.19,3.68,3.68,0,0,1-.39,1.75,3.39,3.39,0,0,1-1.08,1.21,5.25,5.25,0,0,1-1.61.71,8.4,8.4,0,0,1-2,.23Zm2.94-7.94h1.38a2.34,2.34,0,0,0,1.57-.43,1.44,1.44,0,0,0,.49-1.13,1.22,1.22,0,0,0-.5-1.1,2.88,2.88,0,0,0-1.54-.32h-1.4Zm0,5.63H32.6c1.61,0,2.42-.6,2.42-1.79a1.36,1.36,0,0,0-.6-1.25,3.5,3.5,0,0,0-1.82-.38H30.94Z"/><path class="cls-1" d="M39.14,105l4.08-13.24h3.54L50.84,105H47.72l-.8-3.15h-4l-.8,3.15Zm4.72-6.7-.32,1.22h2.78L46,98.3c-.19-.66-.37-1.37-.54-2.11S45.13,94.73,45,94h-.08c-.16.7-.33,1.42-.49,2.16S44,97.64,43.86,98.3Z"/><path class="cls-1" d="M56.94,105.24a7.32,7.32,0,0,1-2.55-.47,6.67,6.67,0,0,1-2.27-1.43l1.68-2.06a6.14,6.14,0,0,0,1.55,1,4,4,0,0,0,1.67.39,2.25,2.25,0,0,0,1.37-.35,1.11,1.11,0,0,0,.45-.93,1.09,1.09,0,0,0-.13-.53,1.43,1.43,0,0,0-.38-.4,4.15,4.15,0,0,0-.6-.32L57,99.8l-1.7-.73a4.38,4.38,0,0,1-1-.53,3.81,3.81,0,0,1-.84-.76,3.27,3.27,0,0,1-.59-1,3.64,3.64,0,0,1-.22-1.31A3.53,3.53,0,0,1,53,93.92a3.65,3.65,0,0,1,1-1.26,4.59,4.59,0,0,1,1.47-.84,5.56,5.56,0,0,1,1.87-.3,6.13,6.13,0,0,1,2.25.44,5.85,5.85,0,0,1,1.95,1.3L60,95.15a5.71,5.71,0,0,0-1.28-.78,3.63,3.63,0,0,0-1.42-.27,2.07,2.07,0,0,0-1.21.31,1,1,0,0,0-.45.88.86.86,0,0,0,.15.52,1.59,1.59,0,0,0,.42.39,4.61,4.61,0,0,0,.63.32l.78.34,1.68.69a4.53,4.53,0,0,1,1.89,1.34,3.47,3.47,0,0,1,.69,2.25A3.78,3.78,0,0,1,60.57,104a4.77,4.77,0,0,1-1.55.89A6.18,6.18,0,0,1,56.94,105.24Z"/><path class="cls-1" d="M64.78,105V91.76h8.16v2.52H67.72v2.66h4.44v2.5H67.72v3h5.42V105Z"/><path class="cls-1" d="M85,105.24a5.67,5.67,0,0,1-2.56-.55,6.14,6.14,0,0,1-1.9-1.46l.6-.65a5.18,5.18,0,0,0,1.72,1.32,4.73,4.73,0,0,0,2.14.49,3.64,3.64,0,0,0,2.4-.74,2.4,2.4,0,0,0,.88-1.94,2.66,2.66,0,0,0-.19-1.07,2.49,2.49,0,0,0-.51-.75,2.74,2.74,0,0,0-.75-.53l-.91-.45-2-.92c-.28-.12-.58-.27-.9-.44a4,4,0,0,1-.87-.66,3.5,3.5,0,0,1-.65-.94,2.8,2.8,0,0,1-.26-1.29,3,3,0,0,1,.29-1.33,3.19,3.19,0,0,1,.8-1,3.71,3.71,0,0,1,1.22-.68,4.72,4.72,0,0,1,1.53-.24,4.57,4.57,0,0,1,2.13.47A5.53,5.53,0,0,1,88.72,93l-.52.61a4.62,4.62,0,0,0-1.36-1,4,4,0,0,0-1.78-.37,3.22,3.22,0,0,0-2.12.65,2.13,2.13,0,0,0-.8,1.74,2,2,0,0,0,.22,1,2.37,2.37,0,0,0,.56.7,3.48,3.48,0,0,0,.74.51c.26.14.52.26.76.37l2,.9a8.78,8.78,0,0,1,1.06.54,4.39,4.39,0,0,1,.88.72,3.15,3.15,0,0,1,.61,1,3.56,3.56,0,0,1,.23,1.33,3.43,3.43,0,0,1-.3,1.43,3.28,3.28,0,0,1-.85,1.14,4,4,0,0,1-1.33.75A5.29,5.29,0,0,1,85,105.24Z"/><path class="cls-1" d="M97.24,105.24a4.84,4.84,0,0,1-2.18-.49,5.07,5.07,0,0,1-1.72-1.41,6.86,6.86,0,0,1-1.12-2.21,9.57,9.57,0,0,1-.4-2.87,9.3,9.3,0,0,1,.4-2.85,6.8,6.8,0,0,1,1.12-2.18,4.87,4.87,0,0,1,1.72-1.38,5,5,0,0,1,2.18-.47,5,5,0,0,1,2.2.47,4.87,4.87,0,0,1,1.72,1.38,6.8,6.8,0,0,1,1.12,2.18,9.3,9.3,0,0,1,.4,2.85,9.57,9.57,0,0,1-.4,2.87,6.86,6.86,0,0,1-1.12,2.21,5.07,5.07,0,0,1-1.72,1.41A4.9,4.9,0,0,1,97.24,105.24Zm0-.85a3.71,3.71,0,0,0,1.82-.44,4.13,4.13,0,0,0,1.41-1.23,6.05,6.05,0,0,0,.91-1.93,9.41,9.41,0,0,0,.32-2.53,9.24,9.24,0,0,0-.32-2.5,5.79,5.79,0,0,0-.91-1.9,4.18,4.18,0,0,0-1.41-1.21,3.93,3.93,0,0,0-1.82-.42,4,4,0,0,0-1.83.42A4.18,4.18,0,0,0,94,93.86a5.77,5.77,0,0,0-.9,1.9,9.24,9.24,0,0,0-.32,2.5,9.41,9.41,0,0,0,.32,2.53,6,6,0,0,0,.9,1.93A4.13,4.13,0,0,0,95.41,104,3.75,3.75,0,0,0,97.24,104.39Z"/><path class="cls-1" d="M110.78,105.24a5.35,5.35,0,0,1-1.64-.25,3.51,3.51,0,0,1-1.42-.87,4.55,4.55,0,0,1-1-1.66,7.7,7.7,0,0,1-.37-2.6V91.62h.92v8.14a7.4,7.4,0,0,0,.29,2.23,4,4,0,0,0,.77,1.42,2.67,2.67,0,0,0,1.11.76,3.91,3.91,0,0,0,1.33.22,4.14,4.14,0,0,0,1.37-.22,2.76,2.76,0,0,0,1.14-.76,4,4,0,0,0,.79-1.42,7.07,7.07,0,0,0,.3-2.23V91.62h.86v8.24a7.68,7.68,0,0,1-.38,2.6,4.57,4.57,0,0,1-1,1.66,3.51,3.51,0,0,1-1.42.87A5.43,5.43,0,0,1,110.78,105.24Z"/><path class="cls-1" d="M123,105.24a5.7,5.7,0,0,1-2.56-.55,6.14,6.14,0,0,1-1.9-1.46l.6-.65a5.18,5.18,0,0,0,1.72,1.32,4.76,4.76,0,0,0,2.14.49,3.64,3.64,0,0,0,2.4-.74,2.4,2.4,0,0,0,.88-1.94,2.66,2.66,0,0,0-.19-1.07,2.49,2.49,0,0,0-.51-.75,2.74,2.74,0,0,0-.75-.53l-.91-.45-2-.92c-.28-.12-.58-.27-.9-.44a4,4,0,0,1-.87-.66,3.5,3.5,0,0,1-.65-.94,2.93,2.93,0,0,1-.26-1.29,3.08,3.08,0,0,1,.29-1.33,3.19,3.19,0,0,1,.8-1,3.71,3.71,0,0,1,1.22-.68,4.72,4.72,0,0,1,1.53-.24,4.57,4.57,0,0,1,2.13.47A5.53,5.53,0,0,1,126.76,93l-.52.61a4.62,4.62,0,0,0-1.36-1,4,4,0,0,0-1.78-.37,3.22,3.22,0,0,0-2.12.65,2.13,2.13,0,0,0-.8,1.74,2,2,0,0,0,.22,1,2.54,2.54,0,0,0,.56.7,3.75,3.75,0,0,0,.74.51l.76.37,2,.9a8.78,8.78,0,0,1,1.06.54,4.13,4.13,0,0,1,.88.72,3.15,3.15,0,0,1,.61,1,3.56,3.56,0,0,1,.23,1.33,3.43,3.43,0,0,1-.3,1.43,3.28,3.28,0,0,1-.85,1.14,4,4,0,0,1-1.33.75A5.29,5.29,0,0,1,123,105.24Z"/><path class="cls-1" d="M129.78,100.33v-.79h4.4v.79Z"/><path class="cls-1" d="M137.6,105V91.62h1.3l2.76,7.86.52,1.47c.17.49.35,1,.52,1.49h.08c.17-.5.34-1,.5-1.49s.33-1,.5-1.47l2.74-7.86h1.32V105h-.9V96.21c0-.56,0-1.16,0-1.8s.05-1.25.08-1.82H147l-1,3-2.84,8h-.8l-2.86-8-1-3h-.08c0,.57,0,1.18.08,1.82s0,1.24,0,1.8V105Z"/><path class="cls-1" d="M150.64,105l4.64-13.38h.92L160.84,105h-1l-1.54-4.59h-5.22L151.56,105Zm3.6-7.88-.84,2.5h4.68l-.84-2.5c-.27-.8-.52-1.56-.76-2.29s-.47-1.51-.7-2.34h-.08c-.23.83-.46,1.61-.7,2.34S154.51,96.32,154.24,97.12Z"/><path class="cls-1" d="M163.64,105V91.62h3.78a7.53,7.53,0,0,1,1.78.19,3.7,3.7,0,0,1,1.36.62,3,3,0,0,1,.87,1.1,3.78,3.78,0,0,1,.31,1.62,3.4,3.4,0,0,1-.91,2.52,4.12,4.12,0,0,1-2.47,1.12L172,105h-1.06l-3.58-6.15h-2.8V105Zm.92-6.92h2.62a4.33,4.33,0,0,0,2.69-.72,2.64,2.64,0,0,0,.93-2.21,2.34,2.34,0,0,0-.94-2.12,4.9,4.9,0,0,0-2.68-.62h-2.62Z"/><path class="cls-1" d="M175.22,105V91.62h.92V105Z"/><path class="cls-1" d="M180.72,105V91.62h1l5.56,9.44,1.48,2.66h.08c0-.65-.05-1.3-.08-2s0-1.3,0-2v-8.2h.88V105h-1L183,95.56l-1.48-2.66h-.08c0,.65.06,1.28.08,1.9s0,1.25,0,1.9V105Z"/><path class="cls-1" d="M194.14,105V91.62h7.22v.81h-6.3v5.06h5.28v.81h-5.28v5.89h6.5V105Z"/><polygon class="cls-1" points="0 16.8 0 65.65 8.06 66.8 8.06 14.78 0 16.8"/><polygon class="cls-1" points="13.44 13.44 13.44 67.57 21.5 68.72 21.5 11.42 13.44 13.44"/><polygon class="cls-1" points="26.88 10.08 26.88 69.49 34.94 70.64 34.94 8.06 26.88 10.08"/><polygon class="cls-1" points="40.31 6.72 40.31 71.41 48.38 72.56 48.38 4.7 40.31 6.72"/><polygon class="cls-1" points="53.75 3.36 53.75 73.33 61.81 74.48 61.81 1.34 53.75 3.36"/><polygon class="cls-1" points="72.56 0 67.19 0 67.19 75.25 72.56 75.25 80.63 74.64 80.63 1.52 72.56 0"/><polygon class="cls-1" points="126.31 10.14 126.31 71.19 134.38 70.58 134.38 11.66 126.31 10.14"/><polygon class="cls-1" points="166.63 17.75 166.63 68.15 174.69 67.54 174.69 19.27 166.63 17.75"/><polygon class="cls-2" points="86 74.24 94.06 73.63 94.06 30.64 86 29.83 86 74.24"/><polygon class="cls-2" points="99.44 73.22 107.5 72.61 107.5 31.98 99.44 31.18 99.44 73.22"/><polygon class="cls-2" points="112.88 72.21 120.94 71.6 120.94 33.33 112.88 32.52 112.88 72.21"/><polygon class="cls-2" points="139.75 70.18 147.81 69.57 147.81 36.01 139.75 35.21 139.75 70.18"/><polygon class="cls-2" points="153.19 69.17 161.25 68.56 161.25 37.36 153.19 36.55 153.19 69.17"/><polygon class="cls-2" points="180.06 67.14 188.13 66.53 188.13 40.04 180.06 39.24 180.06 67.14"/><polygon class="cls-2" points="193.5 66.12 201.56 65.51 201.56 41.39 193.5 40.58 193.5 66.12"/><polygon class="cls-1" points="86 2.54 86 29.83 94.06 30.64 94.06 4.06 86 2.54"/><polygon class="cls-1" points="99.44 5.07 99.44 31.18 107.5 31.98 107.5 6.59 99.44 5.07"/><polygon class="cls-1" points="112.88 7.61 112.88 32.52 120.94 33.33 120.94 9.13 112.88 7.61"/><polygon class="cls-1" points="139.75 12.68 139.75 35.21 147.81 36.01 147.81 14.2 139.75 12.68"/><polygon class="cls-1" points="153.19 15.21 153.19 36.55 161.25 37.36 161.25 16.73 153.19 15.21"/><polygon class="cls-1" points="180.06 20.28 180.06 39.24 188.13 40.04 188.13 21.8 180.06 20.28"/><polygon class="cls-1" points="193.5 22.82 193.5 40.58 201.56 41.39 201.56 24.34 193.5 22.82"/></g></g></g></svg>