<svg xmlns="http://www.w3.org/2000/svg" viewBox="0 0 292.26 239.25"><defs><style>.cls-1{font-size:58.13px;font-family:Comfortaa-Bold, Comfortaa Bold;font-weight:700;letter-spacing:0.11em;}.cls-1,.cls-3{fill:#fff;}.cls-2{letter-spacing:0.1em;}</style></defs><title>Fichier 1</title><g id="Calque_2" data-name="Calque 2"><g id="OBJECTS"><path d="M118.66,0A118.66,118.66,0,1,0,237.31,118.66,118.79,118.79,0,0,0,118.66,0ZM76.44,200.16a101.15,101.15,0,0,0,8.47,15.45,102.68,102.68,0,0,1-32.23-18.37,102.56,102.56,0,0,1,18.08-12.19A141.61,141.61,0,0,0,76.44,200.16Zm9.07-21.47a103.6,103.6,0,0,1,66.29,0c-8.13,26.55-21.06,42.63-33.14,42.63S93.64,205.23,85.51,178.69ZM70.76,52.27a102.07,102.07,0,0,1-18.08-12.2A102.65,102.65,0,0,1,84.91,21.71a100.55,100.55,0,0,0-8.47,15.44A141,141,0,0,0,70.76,52.27ZM118.66,16c12.08,0,25,16.08,33.14,42.63a102.8,102.8,0,0,1-33.14,5.45,102.65,102.65,0,0,1-33.15-5.46C93.64,32.08,106.57,16,118.66,16Zm42.21,21.15a99.7,99.7,0,0,0-8.47-15.44,102.54,102.54,0,0,1,32.23,18.36,102,102,0,0,1-18.07,12.2A143.16,143.16,0,0,0,160.87,37.15ZM118.66,80.08a118.63,118.63,0,0,0,37.08-5.89,217.93,217.93,0,0,1,4.16,36.47H77.42a218,218,0,0,1,4.15-36.47A118.74,118.74,0,0,0,118.66,80.08Zm41.24,46.58a217.81,217.81,0,0,1-4.16,36.46,119.89,119.89,0,0,0-74.17,0,217.85,217.85,0,0,1-4.15-36.46Zm1,73.5a143.81,143.81,0,0,0,5.69-15.11,102.48,102.48,0,0,1,18.07,12.19,102.57,102.57,0,0,1-32.23,18.37A100.29,100.29,0,0,0,160.87,200.16Zm9.9-30.92a232.33,232.33,0,0,0,5.12-42.58H221A102.22,102.22,0,0,1,196.09,186,118,118,0,0,0,170.77,169.24Zm5.12-58.58a232.12,232.12,0,0,0-5.12-42.58,118,118,0,0,0,25.32-16.74A102.22,102.22,0,0,1,221,110.66ZM41.22,51.33A118.25,118.25,0,0,0,66.54,68.07a234.09,234.09,0,0,0-5.12,42.59H16.31A102.22,102.22,0,0,1,41.22,51.33ZM16.31,126.66H61.42a234,234,0,0,0,5.12,42.58A118.25,118.25,0,0,0,41.22,186,102.22,102.22,0,0,1,16.31,126.66Z"/><rect x="38.96" y="90.32" width="159.39" height="56.67" rx="12"/><text class="cls-1" transform="translate(49.07 134.04)">ww<tspan class="cls-2" x="98.58" y="0">w</tspan></text><path d="M269.94,235.25a7.91,7.91,0,0,1-5.65-2.35l-20.6-20.6-8.32,15.44a8,8,0,0,1-14.63-1.26l-24.32-72.95a7.93,7.93,0,0,1,1.09-7.2,8,8,0,0,1,9-2.92l73,24.31a8,8,0,0,1,1.26,14.64l-15.43,8.31,20.6,20.6a8,8,0,0,1,0,11.32L275.6,232.91A8,8,0,0,1,269.94,235.25Z"/><path class="cls-3" d="M204,147a4.24,4.24,0,0,1,1.29.21l73,24.32a4,4,0,0,1,.63,7.32l-15.44,8.31a4,4,0,0,0-.93,6.35l20.6,20.6a4,4,0,0,1,0,5.66l-5.16,5.16-5.16,5.16a4,4,0,0,1-5.65,0l-20.61-20.61a4,4,0,0,0-6.35.94l-8.31,15.43a4,4,0,0,1-7.32-.63l-24.31-73A4,4,0,0,1,204,147m0-8a12,12,0,0,0-9.72,5,11.84,11.84,0,0,0-1.64,10.8l24.31,73a12,12,0,0,0,21.95,1.9l5.77-10.71,16.8,16.8a12,12,0,0,0,17,0l5.16-5.16,5.16-5.16a12,12,0,0,0,0-17L272,191.64l10.7-5.76a12,12,0,0,0-1.89-21.95l-72.95-24.32A12.17,12.17,0,0,0,204,139Z"/></g></g></svg>