<svg xmlns="http://www.w3.org/2000/svg" xmlns:xlink="http://www.w3.org/1999/xlink" viewBox="0 0 676.7 227.2"><defs><style>.cls-1{opacity:0.9;fill:url(#Dégradé_sans_nom_61);}.cls-2{opacity:0.6;fill:url(#Dégradé_sans_nom_13);}.cls-3{fill:url(#Dégradé_sans_nom_4);}.cls-4{fill:url(#Dégradé_sans_nom_4-2);}.cls-5{fill:url(#Dégradé_sans_nom_31);}.cls-6{fill:url(#Dégradé_sans_nom_27);}</style><radialGradient id="Dégradé_sans_nom_61" cx="225.04" cy="109.53" r="189.56" gradientTransform="translate(-106.61 161.83) scale(1.98 0.25)" gradientUnits="userSpaceOnUse"><stop offset="0.21" stop-color="#010015"/><stop offset="0.46" stop-color="#080818" stop-opacity="0.75"/><stop offset="0.76" stop-color="#1d1f22" stop-opacity="0.04"/><stop offset="0.77" stop-color="#1e2023" stop-opacity="0"/></radialGradient><linearGradient id="Dégradé_sans_nom_13" x1="413.12" y1="180.84" x2="413.12" y2="104.24" gradientUnits="userSpaceOnUse"><stop offset="0.09" stop-color="#29235c"/><stop offset="0.3" stop-color="#272251" stop-opacity="0.81"/><stop offset="0.72" stop-color="#222136" stop-opacity="0.33"/><stop offset="0.97" stop-color="#1e2023" stop-opacity="0"/></linearGradient><linearGradient id="Dégradé_sans_nom_4" x1="418.2" x2="418.2" y2="119.95" gradientUnits="userSpaceOnUse"><stop offset="0" stop-color="#818284"/><stop offset="1"/></linearGradient><linearGradient id="Dégradé_sans_nom_4-2" x1="292.57" y1="67.98" x2="292.57" y2="109.23" xlink:href="#Dégradé_sans_nom_4"/><linearGradient id="Dégradé_sans_nom_31" x1="338.35" y1="57.19" x2="338.35" y2="192.91" gradientUnits="userSpaceOnUse"><stop offset="0" stop-color="#818284"/><stop offset="0.11" stop-color="#77787a"/><stop offset="0.29" stop-color="#5c5d5f"/><stop offset="0.52" stop-color="#303134"/><stop offset="0.6" stop-color="#1e2023"/></linearGradient><linearGradient id="Dégradé_sans_nom_27" x1="112.47" y1="133.12" x2="112.47" y2="152.72" gradientUnits="userSpaceOnUse"><stop offset="0" stop-color="#818284"/><stop offset="0.05" stop-color="#767779"/><stop offset="0.2" stop-color="#5f5f60"/><stop offset="0.35" stop-color="#4e4e4e"/><stop offset="0.52" stop-color="#444443"/><stop offset="0.7" stop-color="#414140"/></linearGradient></defs><title>Fichier 8</title><g id="Calque_2" data-name="Calque 2"><g id="Calque_1-2" data-name="Calque 1"><path class="cls-1" d="M676.7,188.31c0,21.48-151.48,38.89-338.35,38.89S0,209.79,0,188.31c0-11.94,46.81-22.62,120.48-29.76,20.37,21.15,77.4,22.3,213.66,22.3,29.49,0,62.31-31,89.58-30.18,28.69,34.77,127.06,27.11,171.06,12.27C645.84,169.75,676.7,178.61,676.7,188.31Z"/><rect class="cls-2" x="227.18" y="104.24" width="371.87" height="76.6"/><path class="cls-3" d="M503,101.47H333.42c5.87-16.27,18.15-34,30.44-34h45.6V61.1a5.65,5.65,0,0,1,4.32-5.48v-50A5.65,5.65,0,0,1,419.42,0h9.14a5.66,5.66,0,0,1,5.64,5.64V9.69a5.66,5.66,0,0,1-5.64,5.64h-3.5V55.62a5.65,5.65,0,0,1,4.31,5.48v6.36h53.55C494.23,67.46,500.23,87.84,503,101.47Z"/><path class="cls-4" d="M301,71.76V72a1.6,1.6,0,0,1-1.6,1.59h-4.05V97.17a2.82,2.82,0,0,1,2.13,2.73v1.57h-9.89V99.9a2.8,2.8,0,0,1,2.12-2.72V73.62h-4A1.6,1.6,0,0,1,284.1,72v-.27a1.6,1.6,0,0,1,1.6-1.6h4.12A2.82,2.82,0,0,1,292.56,68a2.79,2.79,0,0,1,2,.83,2.74,2.74,0,0,1,.75,1.35h4.13A1.6,1.6,0,0,1,301,71.76Z"/><path class="cls-5" d="M652.76,140.09a.13.13,0,0,0,0-.06c-1.34-21.66-47.41-41-67.79-39.56H244.81c-32.6,0-74.37,6.23-110.62,13.38L123.65,87.61A5.24,5.24,0,0,0,119,84H107.75c-2.41,0-4.51,2-5.09,5L96,122.1c-25.74,6.08-43.28,11.33-43.28,12.39-2.28,0-4.5.08-6.62.23,1.51-6.87.7-20.7-2.43-25q-6.35-8.69-12.69,0c-4.23,5.79,4.23,11.58,8.46,11.58,3.49,0,4.1,7.87,1.83,13.88-10.34,1.3-17.57,4.3-17.57,7.8s7.47,6.61,18.08,7.88c1.64,5.72.85,12.33-2.34,12.33-4.23,0-12.69,5.79-8.46,11.58s8.46,5.79,12.69,0c2.91-4,3.82-16.27,2.71-23.49,2,.14,4.16.21,6.34.21,0,1.09,18.81,6.69,46.06,13l3.27,26a5,5,0,0,0,4.7,4.64h8.6a4.88,4.88,0,0,0,4.57-3.92l5.25-20.93h0c38.18,7.86,84.29,15.18,119.63,15.18H359.44a11,11,0,0,0,10.44,7.7H473.51a11,11,0,0,0,10.45-7.7H602c11.7,0,24.45-4.78,34.29-12.49S653,154.69,653,143A17.64,17.64,0,0,0,652.76,140.09Zm-398.09,19.3h-14v-7h14Zm21,0h-14v-7h14ZM311.09,174h-14v-7h14Zm21,0h-14v-7h14Zm21,0H339v-7h14ZM394.92,132H381v-7h14Zm0-14H381v-7h14Zm21,14h-14v-7h14Zm0-14h-14v-7h14Zm21,14h-14v-7h14Zm0-14h-14v-7h14Zm21,14h-14v-7h14Zm0-14h-14v-7h14ZM513.69,160h-14v-7h14Zm0-14h-14v-7h14Zm21,14h-14v-7h14Zm0-14h-14v-7h14Zm21,14h-14v-7h14Zm0-14h-14v-7h14Zm21,14h-14v-7h14Zm20.95,0h-14v-7h14Z"/><path class="cls-6" d="M154.14,142.92a9.81,9.81,0,0,1-9.81,9.8l-1.41-.1-67.21-4.8a4.9,4.9,0,1,1,0-9.8l67.21-4.8,1.41-.1A9.81,9.81,0,0,1,154.14,142.92Z"/></g></g></svg>