<svg xmlns="http://www.w3.org/2000/svg" viewBox="0 0 629.29 196.18"><defs><style>.cls-1{fill:#414140;}.cls-2{fill:#818284;}.cls-3{fill:#1e2023;}.cls-4{fill:#1d1d1b;}</style></defs><title>Fichier 1</title><g id="Calque_2" data-name="Calque 2"><g id="Calque_1-2" data-name="Calque 1"><path class="cls-1" d="M459.21,67.46H405.66V79.83A5.66,5.66,0,0,1,400,85.47H391.4a5.66,5.66,0,0,1-5.64-5.64V67.46h-45.6c-12.29,0-24.57,17.75-30.45,34H479.28C476.53,87.84,470.53,67.46,459.21,67.46Z"/><path class="cls-2" d="M459.21,67.46H445.83c26.62,4.62,33.45,34,33.45,34C476.53,87.84,470.53,67.46,459.21,67.46Z"/><path class="cls-2" d="M350.08,67.46h-9.92c-12.29,0-24.57,17.75-30.45,34C309.71,101.47,324.28,72.58,350.08,67.46Z"/><path class="cls-3" d="M400,55.46a5.83,5.83,0,0,1,1.33.16V15.33h-5.64a5.66,5.66,0,0,1-5.64-5.64V55.62a5.83,5.83,0,0,1,1.33-.16Z"/><path class="cls-3" d="M390.07,55.62a5.67,5.67,0,0,0-4.31,5.48v6.36h4.31Z"/><path class="cls-3" d="M405.66,67.46V61.1a5.66,5.66,0,0,0-4.31-5.48V67.46Z"/><path class="cls-1" d="M391.4,85.47H400a5.66,5.66,0,0,0,5.64-5.64V67.46h-4.31v5.87a5.64,5.64,0,0,1-11.28,0V67.46h-4.31V79.83A5.66,5.66,0,0,0,391.4,85.47Z"/><path class="cls-3" d="M401.35,67.46V55.62a5.83,5.83,0,0,0-1.33-.16H391.4a5.83,5.83,0,0,0-1.33.16V67.46Z"/><path class="cls-1" d="M390.07,73.33a5.64,5.64,0,0,0,11.28,0V67.46H390.07Z"/><path class="cls-3" d="M401.35,5.64v9.69h3.5a5.66,5.66,0,0,0,5.64-5.64v-4A5.66,5.66,0,0,0,404.85,0h-9.14A5.66,5.66,0,0,1,401.35,5.64Z"/><path class="cls-3" d="M395.71,15.33h5.64V5.64a5.64,5.64,0,0,0-11.28,0V9.69A5.66,5.66,0,0,0,395.71,15.33Z"/><path class="cls-1" d="M273.71,108.83h33.77a75,75,0,0,1,2.23-7.36H273.8v6.68A3.09,3.09,0,0,1,273.71,108.83Z"/><path class="cls-4" d="M629.05,141v.08c-3.67-22.35-56.06-34.6-93.14-32.27H548c22.8,0,66.34,13,66.34,29h0c0,15.95-27,29-49.76,29H456.89a10.92,10.92,0,0,1,3.85,8.31v8.14a10.75,10.75,0,0,1-.49,3.23h118c23.38,0,51-19.13,51-42.52h0A19.82,19.82,0,0,0,629.05,141Z"/><path class="cls-1" d="M29.09,139.94c1.13-1,18.77-5.83,44.05-11.41a7.81,7.81,0,0,1-.84-5.41v0C46.56,129.18,29,134.43,29,135.49h.07Z"/><path class="cls-1" d="M535.91,108.83c8.12-1.37,24.7-4.72,25.35-7.36h-82c.57,2.83,1,5.36,1.31,7.36Z"/><path class="cls-1" d="M216.31,108.83H264a3.09,3.09,0,0,1-.09-.68v-6.68H221.1c-32.6,0-74.36,6.23-110.62,13.38l2.27,5.66C147.07,114.21,185.81,108.83,216.31,108.83Z"/><path class="cls-4" d="M335.24,175.14a10.93,10.93,0,0,1,3.86-8.31H191.31c-34.61-6.74-51.84-11.42-84.75-15.77l-5.09,20.27c38.19,7.86,84.3,15.18,119.63,15.18H335.73a10.75,10.75,0,0,1-.49-3.23Z"/><path class="cls-4" d="M29.09,143.64v8.86H29c0,1.09,18.81,6.69,46.06,13l-2.3-18.26C60.38,146.09,46.05,144.89,29.09,143.64Z"/><path class="cls-1" d="M480.59,108.83c-.31-2-.74-4.53-1.31-7.36H309.71a75,75,0,0,0-2.23,7.36Z"/><path class="cls-3" d="M268.86,68a2.83,2.83,0,0,0-2.74,2.19h5.48A2.83,2.83,0,0,0,268.86,68Z"/><path class="cls-3" d="M271,97.08a2.69,2.69,0,0,1,.7.1V73.62H266V97.18a2.69,2.69,0,0,1,.7-.1Z"/><path class="cls-3" d="M273.8,101.47V99.9a2.81,2.81,0,0,0-2.12-2.72v4.29Z"/><path class="cls-3" d="M266,97.18a2.82,2.82,0,0,0-2.12,2.72v1.57H266Z"/><path class="cls-1" d="M264,108.83h9.7a3.09,3.09,0,0,0,.09-.68v-6.68h-2.12v3.18a2.82,2.82,0,1,1-5.64,0v-3.18h-2.12v6.68A3.09,3.09,0,0,0,264,108.83Z"/><path class="cls-3" d="M271.68,101.47V97.18a2.69,2.69,0,0,0-.7-.1h-4.24a2.69,2.69,0,0,0-.7.1v4.29Z"/><path class="cls-1" d="M266,104.65a2.82,2.82,0,1,0,5.64,0v-3.18H266Z"/><path class="cls-3" d="M266.12,70.17H262a1.6,1.6,0,0,0-1.6,1.59V72a1.6,1.6,0,0,0,1.6,1.59h4V70.8A2.59,2.59,0,0,1,266.12,70.17Z"/><path class="cls-3" d="M271.68,73.62h4.05A1.59,1.59,0,0,0,277.32,72v-.27a1.59,1.59,0,0,0-1.59-1.59H271.6a2.59,2.59,0,0,1,.08.63Z"/><path class="cls-3" d="M271.68,70.8a2.59,2.59,0,0,0-.08-.63h-5.48a2.59,2.59,0,0,0-.08.63v2.82h5.64Z"/><path class="cls-4" d="M346.18,194.22H449.81a11,11,0,0,0,10.44-7.71H335.73A11,11,0,0,0,346.18,194.22Z"/><path class="cls-4" d="M460.74,175.14a10.92,10.92,0,0,0-3.85-8.31H339.1a10.93,10.93,0,0,0-3.86,8.31v8.14a10.75,10.75,0,0,0,.49,3.23H460.25a10.75,10.75,0,0,0,.49-3.23Z"/><path class="cls-3" d="M100,88.61A5.26,5.26,0,0,0,95.26,85H84c-2.41,0-4.5,2-5.09,5L72.3,123.1c11.39-2.69,24.38-5.54,38.18-8.25Z"/><path class="cls-1" d="M73.14,128.53c11.83-2.62,25.34-5.4,39.61-8l-2.27-5.66c-13.8,2.71-26.79,5.56-38.18,8.25v0A7.81,7.81,0,0,0,73.14,128.53Z"/><path class="cls-4" d="M78.34,191.54a5,5,0,0,0,4.7,4.64h8.61a4.87,4.87,0,0,0,4.56-3.92l5.26-20.93c-9.37-1.93-18.25-3.9-26.39-5.79Z"/><path class="cls-4" d="M72.78,147.28l2.3,18.26c8.14,1.89,17,3.86,26.39,5.79l5.09-20.27C96.92,149.79,85.94,148.54,72.78,147.28Z"/><path class="cls-1" d="M29,140v-4.54c-2.28,0-4.5.08-6.63.23a10.63,10.63,0,0,1-1,2.81A22.28,22.28,0,0,1,29,140Z"/><path class="cls-4" d="M15.7,140.91c-1.07.57-1.5.94-.87,0A50.8,50.8,0,0,0,0,144c0,3.56,7.47,6.61,18.07,7.87a15.83,15.83,0,0,0-2.34-5c-3-4.09,0,0,4.23,0,1.31,0,2.21,2.22,2.71,5.46,2,.13,4.17.21,6.35.21v-8.87S24.47,140.74,15.7,140.91Z"/><path class="cls-1" d="M17.57,136.18C7.23,137.49,0,140.49,0,144a33.68,33.68,0,0,1,16.46-5.44A15.63,15.63,0,0,0,17.57,136.18Z"/><path class="cls-4" d="M29.09,143.64H29v8.87h.07Z"/><path class="cls-1" d="M29.09,139.94v-4.45H29V140S29.05,140,29.09,139.94Z"/><path class="cls-1" d="M20,110.73q-6.35-8.69-12.68,0c-4.23,5.79,4.23,11.58,8.45,11.58,3.49,0,4.1,7.87,1.84,13.87,1.54-.19,3.15-.35,4.82-.46C23.9,128.85,23.1,115,20,110.73Z"/><path class="cls-1" d="M21.43,138.53a10.63,10.63,0,0,0,1-2.81c-1.67.11-3.28.27-4.82.46a15.63,15.63,0,0,1-1.11,2.37A39.38,39.38,0,0,1,21.43,138.53Z"/><path class="cls-4" d="M15.7,140.91l-.87,0C14.2,141.85,14.63,141.48,15.7,140.91Z"/><path class="cls-4" d="M15.73,164.2c-4.22,0-12.68,5.79-8.45,11.58s8.45,5.79,12.68,0c2.92-4,3.82-16.28,2.71-23.49-1.58-.11-3.12-.25-4.6-.43C19.71,157.59,18.93,164.2,15.73,164.2Z"/><path class="cls-4" d="M20,146.83c-4.23,0-7.22-4.09-4.23,0a15.83,15.83,0,0,1,2.34,5c1.48.18,3,.32,4.6.43C22.17,149.05,21.27,146.83,20,146.83Z"/><path class="cls-1" d="M70.16,143.83a2.72,2.72,0,0,1,1.9-2.34l-.52-4.08c-.4-3.26,1.82-6.17,4.71-6.17h1.14a5,5,0,0,1-4.25-2.71c-25.28,5.58-42.92,10.43-44,11.41v.32a4.11,4.11,0,0,1,0,3.25v.13c17,1.25,31.29,2.45,43.69,3.64l-.11-.9C71.21,146,70.16,145,70.16,143.83Z"/><path class="cls-1" d="M481.22,113.48a5,5,0,0,1-5,5H306.14a41.93,41.93,0,0,1,1.34-9.65H273.71A2.83,2.83,0,0,1,271,111h-4.24a2.83,2.83,0,0,1-2.73-2.14h-47.7c-30.5,0-69.24,5.38-103.56,11.68l.51,1.27c1.74,4.35-.79,9.46-4.69,9.46h-3.33c3.15,0,5.43,3.44,4.57,6.89l-.35,1.37c2.08,0,4.87,2.16,4.87,4.33s-2.83,4.34-4.91,4.34l-2.11-.1-.75,3c32.91,4.35,50.14,9,84.75,15.77H339.1a10.87,10.87,0,0,1,7.08-2.62H449.81a10.91,10.91,0,0,1,7.08,2.62H564.57c22.81,0,49.76-13.05,49.76-29h0c1.25-25.91-43.54-29-66.34-29h-67.4C481,111.69,481.22,113.48,481.22,113.48Z"/><path class="cls-1" d="M476.22,118.48a5,5,0,0,0,5-5s-.19-1.79-.63-4.65H307.48a41.93,41.93,0,0,0-1.34,9.65Z"/><path class="cls-1" d="M266.74,111H271a2.83,2.83,0,0,0,2.73-2.14H264A2.83,2.83,0,0,0,266.74,111Z"/><path class="cls-1" d="M346.18,164.21a10.87,10.87,0,0,0-7.08,2.62H456.89a10.91,10.91,0,0,0-7.08-2.62Z"/><path class="cls-1" d="M77.39,131.24h31.18c3.9,0,6.43-5.11,4.69-9.46l-.51-1.27c-14.27,2.62-27.78,5.4-39.61,8A5,5,0,0,0,77.39,131.24Z"/><path class="cls-1" d="M73.94,146.55a4.81,4.81,0,0,1-1.27-.17l.11.9c13.16,1.26,24.14,2.51,33.78,3.78l.75-3Z"/><path class="cls-1" d="M76.25,131.24c-2.89,0-5.11,2.91-4.71,6.17l.52,4.08a4.92,4.92,0,0,1,1.88-.38l35.48-1.61h0l.35-1.37c.86-3.45-1.42-6.89-4.57-6.89h-29Z"/><path class="cls-1" d="M29.09,139.94S29,140,29,140s0,.15.07.23Z"/><path class="cls-1" d="M29,143.63h.07v-.13Z"/><path class="cls-1" d="M21.43,138.53c-.42.73-.9,1.15-1.47,1.15a9.15,9.15,0,0,0-4.26,1.23c8.77-.17,13.32,2.72,13.32,2.72V140A22.28,22.28,0,0,0,21.43,138.53Z"/><path class="cls-1" d="M15.73,139.68a10.92,10.92,0,0,0,.73-1.13A33.68,33.68,0,0,0,0,144a50.8,50.8,0,0,1,14.83-3.06Z"/><path class="cls-1" d="M21.43,138.53a39.38,39.38,0,0,0-5,0,10.92,10.92,0,0,1-.73,1.13l-.9,1.25.87,0A9.15,9.15,0,0,1,20,139.68C20.53,139.68,21,139.26,21.43,138.53Z"/><path class="cls-1" d="M29.09,140.26v3.25A4.11,4.11,0,0,0,29.09,140.26Z"/><path class="cls-1" d="M29.09,140.26c0-.08,0-.15-.07-.23v3.6l.07-.12Z"/><path class="cls-2" d="M70.16,143.83c0,1.18,1,2.17,2.51,2.55l-.61-4.89A2.72,2.72,0,0,0,70.16,143.83Z"/><path class="cls-2" d="M109.42,148.17c2.08,0,4.91-2,4.91-4.34s-2.79-4.3-4.87-4.33l-2.15,8.57Z"/><path class="cls-2" d="M73.94,141.11a4.92,4.92,0,0,0-1.88.38l.61,4.89a4.81,4.81,0,0,0,1.27.17l33.37,1.52,2.15-8.57h0Z"/><path class="cls-2" d="M629.05,141c-1.36-21.65-47.41-41-67.79-39.55C583.65,101.47,625.51,119,629.05,141Z"/><path class="cls-2" d="M535.48,108.87c36.8-.7,89.9,9.88,93.57,32.23V141c-3.54-22-45.4-39.55-67.79-39.55C560.61,104.11,543.63,107.26,535.48,108.87Z"/><rect class="cls-3" x="245.91" y="119.15" width="12" height="6.75"/><rect class="cls-3" x="262.63" y="119.15" width="12" height="6.75"/><rect class="cls-3" x="279.36" y="119.15" width="12" height="6.75"/><rect class="cls-3" x="296.08" y="119.15" width="12" height="6.75"/><rect class="cls-3" x="312.81" y="119.15" width="12" height="6.75"/><rect class="cls-3" x="329.53" y="119.15" width="12" height="6.75"/><rect class="cls-3" x="409.66" y="119.15" width="12" height="6.75"/><rect class="cls-3" x="426.38" y="119.15" width="12" height="6.75"/><rect class="cls-3" x="443.11" y="119.15" width="12" height="6.75"/><rect class="cls-3" x="459.83" y="119.15" width="12" height="6.75"/><rect class="cls-3" x="476.56" y="119.15" width="12" height="6.75"/><rect class="cls-3" x="493.28" y="119.15" width="12" height="6.75"/><rect class="cls-3" x="556.16" y="131.15" width="12" height="6.75"/><rect class="cls-3" x="573.28" y="131.15" width="12" height="6.75"/><rect class="cls-3" x="148.16" y="148.12" width="12" height="6.75"/><rect class="cls-3" x="164.88" y="148.12" width="12" height="6.75"/><rect class="cls-3" x="198.33" y="148.12" width="12" height="6.75"/><rect class="cls-3" x="215.06" y="148.12" width="12" height="6.75"/><rect class="cls-3" x="231.78" y="148.12" width="12" height="6.75"/></g></g></svg>