<svg xmlns="http://www.w3.org/2000/svg" xmlns:xlink="http://www.w3.org/1999/xlink" viewBox="0 0 684.88 227.22"><defs><style>.cls-1{opacity:0.9;fill:url(#Dégradé_sans_nom_61);}.cls-2{fill:#27348b;opacity:0.3;}.cls-3{fill:url(#Dégradé_sans_nom_4);}.cls-4{fill:url(#Dégradé_sans_nom_4-2);}.cls-5{fill:url(#Dégradé_sans_nom_31);}.cls-6{fill:url(#Dégradé_sans_nom_27);}</style><radialGradient id="Dégradé_sans_nom_61" cx="225.19" cy="109.03" r="189.77" gradientTransform="translate(-98.92 161.33) scale(1.98 0.25)" gradientUnits="userSpaceOnUse"><stop offset="0.21" stop-color="#010015"/><stop offset="0.46" stop-color="#080818" stop-opacity="0.75"/><stop offset="0.76" stop-color="#1d1f22" stop-opacity="0.04"/><stop offset="0.77" stop-color="#1e2023" stop-opacity="0"/></radialGradient><linearGradient id="Dégradé_sans_nom_4" x1="394.5" x2="394.5" y2="119.95" gradientUnits="userSpaceOnUse"><stop offset="0" stop-color="#818284"/><stop offset="1"/></linearGradient><linearGradient id="Dégradé_sans_nom_4-2" x1="268.87" y1="67.98" x2="268.87" y2="109.23" xlink:href="#Dégradé_sans_nom_4"/><linearGradient id="Dégradé_sans_nom_31" x1="314.65" y1="57.19" x2="314.65" y2="192.91" gradientUnits="userSpaceOnUse"><stop offset="0" stop-color="#818284"/><stop offset="0.11" stop-color="#77787a"/><stop offset="0.29" stop-color="#5c5d5f"/><stop offset="0.52" stop-color="#303134"/><stop offset="0.6" stop-color="#1e2023"/></linearGradient><linearGradient id="Dégradé_sans_nom_27" x1="88.77" y1="133.12" x2="88.77" y2="152.72" gradientUnits="userSpaceOnUse"><stop offset="0" stop-color="#818284"/><stop offset="0.05" stop-color="#767779"/><stop offset="0.2" stop-color="#5f5f60"/><stop offset="0.35" stop-color="#4e4e4e"/><stop offset="0.52" stop-color="#444443"/><stop offset="0.7" stop-color="#414140"/></linearGradient></defs><title>Fichier 5</title><g id="Calque_2" data-name="Calque 2"><g id="Calque_1-2" data-name="Calque 1"><ellipse class="cls-1" cx="346.33" cy="188.31" rx="338.55" ry="38.91"/><rect class="cls-2" x="203.48" y="104.24" width="371.87" height="76.6"/><path class="cls-3" d="M479.28,101.47H309.72c5.87-16.27,18.15-34,30.44-34h45.6V61.1a5.65,5.65,0,0,1,4.32-5.48v-50A5.65,5.65,0,0,1,395.72,0h9.14a5.66,5.66,0,0,1,5.64,5.64V9.69a5.66,5.66,0,0,1-5.64,5.64h-3.5V55.62a5.65,5.65,0,0,1,4.31,5.48v6.36h53.55C470.53,67.46,476.53,87.84,479.28,101.47Z"/><path class="cls-4" d="M277.33,71.76V72a1.6,1.6,0,0,1-1.6,1.59h-4.05V97.17a2.82,2.82,0,0,1,2.13,2.73v1.57h-9.89V99.9A2.8,2.8,0,0,1,266,97.18V73.62h-4A1.6,1.6,0,0,1,260.4,72v-.27a1.6,1.6,0,0,1,1.6-1.6h4.12A2.82,2.82,0,0,1,268.86,68a2.79,2.79,0,0,1,2,.83,2.74,2.74,0,0,1,.75,1.35h4.13A1.6,1.6,0,0,1,277.33,71.76Z"/><path class="cls-5" d="M629.06,140.09a.13.13,0,0,0,0-.06c-1.34-21.66-47.41-41-67.79-39.56H221.11c-32.6,0-74.37,6.23-110.62,13.38L100,87.61A5.24,5.24,0,0,0,95.26,84H84.05c-2.41,0-4.51,2-5.09,5L72.3,122.1C46.56,128.18,29,133.43,29,134.49c-2.28,0-4.5.08-6.62.23,1.51-6.87.7-20.7-2.43-25q-6.34-8.69-12.69,0c-4.23,5.79,4.23,11.58,8.46,11.58,3.49,0,4.1,7.87,1.83,13.88C7.23,136.49,0,139.49,0,143s7.47,6.61,18.08,7.88c1.64,5.72.85,12.33-2.34,12.33-4.23,0-12.69,5.79-8.46,11.58s8.46,5.79,12.69,0c2.91-4,3.82-16.27,2.71-23.49,2,.14,4.16.21,6.34.21,0,1.09,18.81,6.69,46.06,13l3.27,26a5,5,0,0,0,4.7,4.64h8.6a4.88,4.88,0,0,0,4.57-3.92l5.25-20.93h0c38.18,7.86,84.29,15.18,119.63,15.18H335.74a11,11,0,0,0,10.44,7.7H449.81a11,11,0,0,0,10.45-7.7h118c11.7,0,24.45-4.78,34.29-12.49s16.74-18.33,16.74-30A17.64,17.64,0,0,0,629.06,140.09ZM231,159.39H217v-7h14Zm20.95,0H238v-7h14ZM287.39,174h-14v-7h14Zm21,0h-14v-7h14Zm21,0h-14v-7h14ZM371.22,132h-14v-7h14Zm0-14h-14v-7h14Zm21,14h-14v-7h14Zm0-14h-14v-7h14Zm21,14h-14v-7h14Zm0-14h-14v-7h14Zm21,14h-14v-7h14Zm0-14h-14v-7h14ZM490,160H476v-7h14Zm0-14H476v-7h14Zm21,14H497v-7h14Zm0-14H497v-7h14Zm21,14h-14v-7h14Zm0-14h-14v-7h14Zm21,14h-14v-7h14Zm21,0h-14v-7h14Z"/><path class="cls-6" d="M130.44,142.92a9.81,9.81,0,0,1-9.81,9.8l-1.41-.1L52,147.82a4.9,4.9,0,0,1,0-9.8l67.21-4.8,1.41-.1A9.81,9.81,0,0,1,130.44,142.92Z"/></g></g></svg>