<svg xmlns="http://www.w3.org/2000/svg" viewBox="0 0 629.29 196.18"><defs><style>.cls-1{fill:#818284;}.cls-2{fill:#1e2023;}.cls-3{fill:#414140;}.cls-4{fill:#1d1d1b;}</style></defs><title>Fichier 3</title><g id="Calque_2" data-name="Calque 2"><g id="Calque_1-2" data-name="Calque 1"><path class="cls-1" d="M479.28,101.47c-2.75-13.63-8.75-34-20.07-34H445.83C472.45,72.08,479.28,101.47,479.28,101.47Z"/><path class="cls-1" d="M350.08,67.46h-9.92c-12.29,0-24.57,17.75-30.45,34C309.71,101.47,324.28,72.58,350.08,67.46Z"/><path class="cls-2" d="M404.85,0h-9.14a5.66,5.66,0,0,0-5.64,5.64v50a5.67,5.67,0,0,0-4.31,5.48v6.36h19.9V61.1a5.66,5.66,0,0,0-4.31-5.48V15.33h3.5a5.66,5.66,0,0,0,5.64-5.64v-4A5.66,5.66,0,0,0,404.85,0Z"/><path class="cls-2" d="M275.73,70.17H271.6a2.81,2.81,0,0,0-5.48,0H262a1.6,1.6,0,0,0-1.6,1.59V72a1.6,1.6,0,0,0,1.6,1.59h4V97.18a2.82,2.82,0,0,0-2.12,2.72v1.57h9.88V99.9a2.81,2.81,0,0,0-2.12-2.72V73.62h4.05A1.59,1.59,0,0,0,277.32,72v-.27A1.59,1.59,0,0,0,275.73,70.17Z"/><path class="cls-2" d="M100,88.61A5.26,5.26,0,0,0,95.26,85H84c-2.41,0-4.5,2-5.09,5L72.3,123.1c11.39-2.69,24.38-5.54,38.18-8.25Z"/><path class="cls-3" d="M29.09,139.94v-4.45H29V140S29.05,140,29.09,139.94Z"/><path class="cls-4" d="M15.7,140.91l-.87,0C14.2,141.85,14.63,141.48,15.7,140.91Z"/><path class="cls-4" d="M629.05,141v.08c0-.21-.08-.41-.12-.61s-.08-.36-.12-.55c-2.14-8.74-11.94-15.61-25.25-20.65,6.83,4.27,11.17,10.23,10.77,18.54h0c0,15.95-27,29-49.76,29H191.31c-34.61-6.74-51.84-11.42-84.75-15.77-9.64-1.27-20.62-2.52-33.78-3.78-12.4-1.19-26.73-2.39-43.69-3.64H29s-4.55-2.89-13.32-2.72c-1.07.57-1.5.94-.87,0A50.8,50.8,0,0,0,0,144c0,3.56,7.47,6.61,18.07,7.87,1.64,5.73.86,12.34-2.34,12.34-4.22,0-12.68,5.79-8.45,11.58s8.45,5.79,12.68,0c2.92-4,3.82-16.28,2.71-23.49,2,.13,4.17.21,6.35.21h0c0,1.09,18.81,6.69,46.06,13l3.26,26a5,5,0,0,0,4.7,4.64h8.61a4.87,4.87,0,0,0,4.56-3.92l5.26-20.93c38.19,7.86,84.3,15.18,119.63,15.18H335.73a11,11,0,0,0,10.45,7.71H449.81a11,11,0,0,0,10.44-7.71h118c23.38,0,51-19.13,51-42.52h0A19.82,19.82,0,0,0,629.05,141Z"/><path class="cls-3" d="M29.09,139.94S29,140,29,140s0,.15.07.23Z"/><path class="cls-3" d="M29,143.63h.07v-.13Z"/><path class="cls-3" d="M20,110.73q-6.35-8.69-12.68,0c-4.23,5.79,4.23,11.58,8.45,11.58,3.49,0,4.1,7.87,1.84,13.87C7.23,137.49,0,140.49,0,144a50.8,50.8,0,0,1,14.83-3.06l.87,0c8.77-.17,13.32,2.72,13.32,2.72v-8.14c-2.28,0-4.5.08-6.63.23C23.9,128.85,23.1,115,20,110.73Z"/><path class="cls-3" d="M603.56,119.29c-11.7-4.43-26.09-7.44-40.39-9.05a215,215,0,0,0-27.69-1.37l.21,0c8.23-1.62,24.92-4.74,25.57-7.36h-82s-6.83-29.39-33.45-34H350.08c-25.8,5.12-40.37,34-40.37,34H221.1c-32.6,0-74.36,6.23-110.62,13.38-13.8,2.71-26.79,5.56-38.18,8.25C46.56,129.18,29,134.43,29,135.49h.07v8.15c17,1.25,31.29,2.45,43.69,3.64,13.16,1.26,24.14,2.51,33.78,3.78,32.91,4.35,50.14,9,84.75,15.77H564.57c22.81,0,49.76-13.05,49.76-29h0C614.73,129.52,610.39,123.56,603.56,119.29ZM109.42,148.17l-2.11-.1-33.37-1.52a4.81,4.81,0,0,1-1.27-.17c-1.46-.38-2.51-1.37-2.51-2.55a2.72,2.72,0,0,1,1.9-2.34,4.92,4.92,0,0,1,1.88-.38l35.48-1.61h0c2.08,0,4.87,2.16,4.87,4.33S111.5,148.17,109.42,148.17Zm50.74,6.7h-12v-6.75h12Zm16.72,0h-12v-6.75h12Zm33.45,0h-12v-6.75h12Zm16.73,0h-12v-6.75h12Zm16.72,0h-12v-6.75h12Zm14.13-29h-12v-6.75h12Zm16.72,0h-12v-6.75h12Zm16.73,0h-12v-6.75h12Zm16.72,0h-12v-6.75h12Zm16.73,0h-12v-6.75h12Zm16.72,0h-12v-6.75h12Zm80.13,0h-12v-6.75h12Zm16.72,0h-12v-6.75h12Zm16.73,0h-12v-6.75h12Zm16.72,0h-12v-6.75h12Zm16.73,0h-12v-6.75h12Zm16.72,0h-12v-6.75h12Zm62.88,12h-12v-6.75h12Zm17.12,0h-12v-6.75h12Z"/><path class="cls-3" d="M29.09,140.26c0-.08,0-.15-.07-.23v3.6l.07-.12Z"/><path class="cls-1" d="M109.46,139.5h0l-35.48,1.61a4.92,4.92,0,0,0-1.88.38,2.72,2.72,0,0,0-1.9,2.34c0,1.18,1,2.17,2.51,2.55a4.81,4.81,0,0,0,1.27.17l33.37,1.52,2.11.1c2.08,0,4.91-2,4.91-4.34S111.54,139.53,109.46,139.5Z"/><path class="cls-1" d="M628.81,139.93c.05.19.09.39.13.59s.08.33.11.5c-1.36-21.65-47.41-41-67.79-39.55C583.27,101.47,624.09,118.43,628.81,139.93Z"/><path class="cls-1" d="M628.81,139.93h0c.05.18.08.37.12.55v0C628.9,140.32,628.86,140.12,628.81,139.93Z"/><path class="cls-1" d="M535.91,108.83a163.85,163.85,0,0,1,22.31.22c13.61.59,30.37,2.58,42,8.39,15,5.34,26.25,13,28.58,22.49-4.72-21.5-45.54-38.46-67.55-38.46C560.61,104.11,544,107.46,535.91,108.83Z"/><path class="cls-1" d="M629.05,141.1V141c0-.17-.08-.33-.11-.5C629,140.71,629,140.9,629.05,141.1Z"/><path class="cls-1" d="M558.22,109.05a163.85,163.85,0,0,0-22.31-.22H548C551.06,108.83,554.52,108.89,558.22,109.05Z"/><path class="cls-1" d="M628.93,140.49c0,.2.09.4.12.61,0-.2-.07-.39-.11-.58Z"/><path class="cls-1" d="M600.23,117.44a38,38,0,0,1,3.33,1.85c13.31,5,23.11,11.91,25.25,20.65h0C626.48,130.4,615.22,122.78,600.23,117.44Z"/><path class="cls-1" d="M535.69,108.83h.22c8.12-1.37,24.7-4.72,25.35-7.36C560.61,104.09,543.92,107.21,535.69,108.83Z"/><path class="cls-1" d="M558.22,109.05c14.59,1.09,29.58,4,42,8.39C588.59,111.63,571.83,109.64,558.22,109.05Z"/><path class="cls-1" d="M563.17,110.24A96.14,96.14,0,0,0,548,108.83h-12.3l-.21,0A215,215,0,0,1,563.17,110.24Z"/><path class="cls-1" d="M558.22,109.05c-3.7-.16-7.16-.22-10.23-.22a96.14,96.14,0,0,1,15.18,1.41c14.3,1.61,28.69,4.62,40.39,9.05a38,38,0,0,0-3.33-1.85C587.8,113,572.81,110.14,558.22,109.05Z"/><path class="cls-1" d="M628.93,140.49c0-.18-.07-.37-.12-.55C628.85,140.13,628.9,140.31,628.93,140.49Z"/><rect class="cls-2" x="245.91" y="119.15" width="12" height="6.75"/><rect class="cls-2" x="262.63" y="119.15" width="12" height="6.75"/><rect class="cls-2" x="279.36" y="119.15" width="12" height="6.75"/><rect class="cls-2" x="296.08" y="119.15" width="12" height="6.75"/><rect class="cls-2" x="312.81" y="119.15" width="12" height="6.75"/><rect class="cls-2" x="329.53" y="119.15" width="12" height="6.75"/><rect class="cls-2" x="409.66" y="119.15" width="12" height="6.75"/><rect class="cls-2" x="426.38" y="119.15" width="12" height="6.75"/><rect class="cls-2" x="443.11" y="119.15" width="12" height="6.75"/><rect class="cls-2" x="459.83" y="119.15" width="12" height="6.75"/><rect class="cls-2" x="476.56" y="119.15" width="12" height="6.75"/><rect class="cls-2" x="493.28" y="119.15" width="12" height="6.75"/><rect class="cls-2" x="556.16" y="131.15" width="12" height="6.75"/><rect class="cls-2" x="573.28" y="131.15" width="12" height="6.75"/><rect class="cls-2" x="148.16" y="148.12" width="12" height="6.75"/><rect class="cls-2" x="164.88" y="148.12" width="12" height="6.75"/><rect class="cls-2" x="198.33" y="148.12" width="12" height="6.75"/><rect class="cls-2" x="215.06" y="148.12" width="12" height="6.75"/><rect class="cls-2" x="231.78" y="148.12" width="12" height="6.75"/></g></g></svg>