<svg id="Calque_1" data-name="Calque 1" xmlns="http://www.w3.org/2000/svg" viewBox="0 0 204.1 204.1"><defs><style>.cls-1{fill:#e2007a;}.cls-2{fill:#ff60b0;}</style></defs><title>tramC</title><path class="cls-1" d="M102,17a85,85,0,1,1-85,85,85,85,0,0,1,85-85m0-5.7a90.75,90.75,0,1,0,90.7,90.8A90.82,90.82,0,0,0,102,11.3Z"/><path class="cls-2" d="M170,132.9c-3.1,1.6-9.4,3.1-17.4,3.1C134,136,120,124.3,120,102.6,120,82,134,68,154.4,68c8.2,0,13.4,1.8,15.7,2.9L168,77.8a30.35,30.35,0,0,0-13.3-2.7c-15.5,0-25.7,9.9-25.7,27.2,0,16.2,9.3,26.5,25.4,26.5a35.07,35.07,0,0,0,13.9-2.7Z"/><g id="Info-Trafic"><g id="V9-page-info-trafic-bus"><g id="FILTRES"><g id="Stacked-Group"><g id="tram"><path class="cls-1" d="M110.3,113.1C109.9,67,98.3,51.5,72,51c-26.3.4-37.9,16-38.3,62.1-.1,18.2,8.5,27.1,18.9,31.4v5.6c0,1.6,1.6,2.9,3.6,2.9s3.6-1.3,3.6-2.9v-3.4a67.67,67.67,0,0,0,13.8,1.5l-1.6-.1a61.11,61.11,0,0,0,11.7-1.4v3.4c0,1.6,1.6,2.9,3.7,2.9s3.6-1.3,3.6-2.9v-5.6c10.6-4.2,19.4-13.1,19.3-31.4M72,54.1h0c20.9.3,30.6,14.1,30.9,50.8,0,.9-.1,1.7-.1,2.5-5.3,5-13.3,8.9-21.9,10.6a9.79,9.79,0,0,0-17.6,0c-8.6-1.7-16.7-5.7-22.1-10.9,0-.7-.1-1.4-.1-2.2.3-36.7,10-50.5,30.9-50.8m.1,78.7c-11.6-.3-27.6-3.9-30.5-21.7a51,51,0,0,0,22.3,9.8l1.2.2.4-1.1a7.08,7.08,0,0,1,13.4,0l.4,1.1,1.2-.2a49.41,49.41,0,0,0,22-9.5C99.3,128.9,83.5,132.4,72.1,132.8Z"/></g></g></g></g></g></svg>