<?xml version="1.0" encoding="utf-8"?>
<!-- Generator: Adobe Illustrator 22.1.0, SVG Export Plug-In . SVG Version: 6.00 Build 0)  -->
<svg version="1.1" id="Calque_1" xmlns="http://www.w3.org/2000/svg" xmlns:xlink="http://www.w3.org/1999/xlink" x="0px" y="0px"
	 viewBox="0 0 204.1 204.1" style="enable-background:new 0 0 204.1 204.1;" xml:space="preserve">
<style type="text/css">
	.st0{fill:#E2007A;}
	.st1{fill:none;stroke:#575756;stroke-width:5.6693;stroke-linecap:round;stroke-miterlimit:10;}
	.st2{fill:#FFFFFF;stroke:#575756;stroke-width:5.6693;stroke-miterlimit:10;}
	.st3{fill:#C6C6C6;stroke:#575756;stroke-width:5.6693;stroke-miterlimit:10;}
	.st4{fill:none;stroke:#575756;stroke-width:5.6693;stroke-miterlimit:10;}
	.st5{fill:#FF60B0;}
	.st6{fill:#E50040;}
</style>
<g>
	<g>
		<path class="st0" d="M102,17c47,0,85,38.1,85,85s-38.1,85-85,85s-85-38-85-85S55.1,17,102,17 M102,11.3C52,11.3,11.3,52,11.3,102
			S52,192.8,102,192.8s90.7-40.7,90.7-90.7S152.1,11.3,102,11.3L102,11.3z"/>
	</g>
</g>
<g>
	<path class="st6" d="M127.9,69.4c3.8-0.8,9.7-1.4,15.8-1.4c8.6,0,14.2,1.5,18.4,4.9c3.5,2.6,5.6,6.6,5.6,11.8
		c0,6.5-4.3,12.1-11.3,14.7v0.2c6.4,1.6,13.8,6.9,13.8,16.8c0,5.8-2.3,10.1-5.7,13.4c-4.7,4.3-12.2,6.3-23.1,6.3
		c-6,0-10.5-0.4-13.4-0.8L127.9,69.4L127.9,69.4z M136.5,96.8h7.8c9.1,0,14.5-4.8,14.5-11.2c0-7.8-6-10.9-14.7-10.9
		c-4,0-6.3,0.3-7.6,0.6V96.8z M136.5,128.9c1.7,0.3,4.2,0.4,7.3,0.4c8.9,0,17.2-3.3,17.2-13c0-9.1-7.8-12.9-17.3-12.9h-7.2V128.9z"
		/>
</g>
<g id="Info-Trafic_1_">
	<g id="V9-page-info-trafic-bus_1_" transform="translate(-1082.000000, -586.000000)">
		<g id="FILTRES_1_" transform="translate(946.000000, 586.000000)">
			<g id="Stacked-Group_1_" transform="translate(86.000000, 0.000000)">
				<g id="tram_1_" transform="translate(50.000000, 0.000000)">
					<path class="st0" d="M110.3,113.1C109.9,67,98.3,51.5,72,51c-26.3,0.4-37.9,16-38.3,62.1c-0.1,18.2,8.5,27.1,18.9,31.4v5.6
						c0,1.6,1.6,2.9,3.6,2.9s3.6-1.3,3.6-2.9v-3.4c4.7,1.1,9.5,1.4,13.8,1.5l-1.6-0.1c3.7-0.1,7.7-0.5,11.7-1.4v3.4
						c0,1.6,1.6,2.9,3.7,2.9c2,0,3.6-1.3,3.6-2.9v-5.6C101.6,140.3,110.4,131.4,110.3,113.1 M72,54.1L72,54.1L72,54.1L72,54.1
						c20.9,0.3,30.6,14.1,30.9,50.8c0,0.9-0.1,1.7-0.1,2.5c-5.3,5-13.3,8.9-21.9,10.6c-1.6-3.3-5-5.5-8.8-5.5s-7.2,2.2-8.8,5.5
						c-8.6-1.7-16.7-5.7-22.1-10.9c0-0.7-0.1-1.4-0.1-2.2C41.4,68.2,51.1,54.4,72,54.1 M72.1,132.8c-11.6-0.3-27.6-3.9-30.5-21.7
						c5.9,4.7,13.9,8.3,22.3,9.8l1.2,0.2l0.4-1.1c1-2.9,3.7-4.8,6.7-4.8s5.7,1.9,6.7,4.8l0.4,1.1l1.2-0.2c8.3-1.4,16.2-4.9,22-9.5
						C99.3,128.9,83.5,132.4,72.1,132.8z"/>
				</g>
			</g>
		</g>
	</g>
</g>
</svg>
