<svg id="Calque_1" data-name="Calque 1" xmlns="http://www.w3.org/2000/svg" viewBox="0 0 204.1 204.1"><defs><style>.cls-1{fill:#e2007a;}</style></defs><title>icone-bus</title><path class="cls-1" d="M102,17a85,85,0,1,1-85,85,85,85,0,0,1,85-85m0-5.7a90.75,90.75,0,1,0,90.7,90.8A90.82,90.82,0,0,0,102,11.3Z"/><g id="Info-Trafic"><g id="V9-page-info-trafic-bus"><g id="FILTRES"><g id="Stacked-Group"><g id="bus"><path class="cls-1" d="M79.6,153.2c0,2.9-1.7,5.3-3.8,5.3H67.9c-2.1,0-3.9-2.4-3.9-5.3V147c0-2.9-.8-2.5,1.3-2.5h7.9c2.1,0,6.4-.4,6.4,2.5Zm60.4,0c0,2.9-1.7,5.3-3.8,5.3h-7.9c-2.1,0-3.9-2.4-3.9-5.3V147c0-2.9,1.7-2.5,3.9-2.5h7.9c2.1,0,3.8-.4,3.8,2.5Zm5.4-95.6a12,12,0,0,0-12-11.9H70.7a12,12,0,0,0-12,11.9L56,132.7a12,12,0,0,0,12,11.9h68.1a12,12,0,0,0,12-11.9ZM65.1,51.8A3.82,3.82,0,0,1,69,48h66.3a3.8,3.8,0,0,1,3.8,3.8l1.4,8.2a3.82,3.82,0,0,1-3.9,3.8H67.3A3.8,3.8,0,0,1,63.5,60ZM61,74.6A7.62,7.62,0,0,1,68.7,67h66.7a7.68,7.68,0,0,1,7.7,7.6v35.9a7.62,7.62,0,0,1-7.7,7.6H68.7a7.68,7.68,0,0,1-7.7-7.6Zm14.2,62.3H62.3a3,3,0,1,1,0-6H75.2a3.1,3.1,0,0,1,3.1,3,3,3,0,0,1-3.1,3Zm66.5,0H128.8a3,3,0,1,1,0-6h12.9a3,3,0,0,1,0,6Z"/></g></g></g></g></g></svg>