<?xml version="1.0" encoding="utf-8"?>
<!-- Generator: Adobe Illustrator 22.1.0, SVG Export Plug-In . SVG Version: 6.00 Build 0)  -->
<svg version="1.1" id="Calque_1" xmlns="http://www.w3.org/2000/svg" xmlns:xlink="http://www.w3.org/1999/xlink" x="0px" y="0px"
	 viewBox="0 0 204.1 204.1" style="enable-background:new 0 0 204.1 204.1;" xml:space="preserve">
<style type="text/css">
	.st0{fill:#E2007A;}
	.st1{fill:none;stroke:#575756;stroke-width:5.6693;stroke-linecap:round;stroke-miterlimit:10;}
	.st2{fill:#FFFFFF;stroke:#575756;stroke-width:5.6693;stroke-miterlimit:10;}
	.st3{fill:#C6C6C6;stroke:#575756;stroke-width:5.6693;stroke-miterlimit:10;}
	.st4{fill:none;stroke:#575756;stroke-width:5.6693;stroke-miterlimit:10;}
	.st5{fill:#FF60B0;}
	.st6{fill:#E50040;}
	.st7{fill:none;}
	.st8{font-family:'Rubik-Bold';}
	.st9{font-size:30.7676px;}
</style>
<g>
	<g>
		<path class="st0" d="M102,17c47,0,85,38.1,85,85s-38.1,85-85,85S17,149,17,102S55.1,17,102,17 M102,11.3C52,11.3,11.3,52,11.3,102
			S52,192.8,102,192.8s90.7-40.7,90.7-90.7S152.1,11.3,102,11.3L102,11.3z"/>
	</g>
</g>
<g>
	<g>
		<path class="st0" d="M79.6,57c0.6,0,1.1,0.5,1.1,1.1v0.4c0,0.6-0.5,1.1-1.1,1.1H40.8c-0.6,0-1.1-0.5-1.1-1.1V58
			c0-0.6,0.5-1.1,1.1-1.1H79.6 M79.6,51.2H40.8c-3.8,0-6.8,3.1-6.8,6.8v0.4c0,3.8,3.1,6.8,6.8,6.8h38.7c3.8,0,6.8-3.1,6.8-6.8V58
			C86.4,54.3,83.3,51.2,79.6,51.2L79.6,51.2z"/>
		<path class="st0" d="M81.3,74.8c0.6,0,1.1,0.5,1.1,1.1v0.4c0,0.6-0.5,1.1-1.1,1.1H65.7c-0.6,0-1.1-0.5-1.1-1.1v-0.4
			c0-0.6,0.5-1.1,1.1-1.1H81.3 M81.3,69.1H65.7c-3.8,0-6.8,3.1-6.8,6.8v0.4c0,3.8,3.1,6.8,6.8,6.8h15.5c3.8,0,6.8-3.1,6.8-6.8v-0.4
			C88.1,72.1,85,69.1,81.3,69.1L81.3,69.1z"/>
		<path class="st0" d="M79.7,65.9c0.6,0,1.1,0.5,1.1,1.1v0.4c0,0.6-0.5,1.1-1.1,1.1H53.3c-0.6,0-1.1-0.5-1.1-1.1V67
			c0-0.6,0.5-1.1,1.1-1.1H79.7 M79.7,60.1H53.3c-3.8,0-6.8,3.1-6.8,6.8v0.4c0,3.8,3.1,6.8,6.8,6.8h26.4c3.8,0,6.8-3.1,6.8-6.8V67
			C86.5,63.2,83.4,60.1,79.7,60.1L79.7,60.1z"/>
		<path class="st0" d="M88.9,110.9h-4.1c-1.2,0-2.3-1-2.3-2.3l-7.7-55.4c0-1.2,1-2.3,2.3-2.3h8.6c1.2,0,2.3,1,2.3,2.3l3.2,55.4
			C91.2,109.9,90.1,110.9,88.9,110.9z"/>
		<path class="st0" d="M91.3,110.9h4.1c1.2,0,2.3-1,2.3-2.3l7.7-55.4c0-1.2-1-2.3-2.3-2.3h-8.6c-1.2,0-2.3,1-2.3,2.3L89,108.7
			C89,109.9,90,110.9,91.3,110.9z"/>
		<rect x="86.9" y="105.8" class="st0" width="6.4" height="5.1"/>
		<path class="st0" d="M88.6,78.1h0.7c0,0,0,6.6,0.7,6.6c0.7,0,0.7-6.6,0.7-6.6h0.7v13.3h-3V78.1z"/>
	</g>
	<rect x="97.6" y="51" class="st7" width="38.5" height="38.5"/>
	<text transform="matrix(0.85 0 0 1.2 108.1379 65.8171)" class="st0 st8 st9">3</text>
</g>
<g id="Info-Trafic_3_">
	<g id="V9-page-info-trafic-bus_3_" transform="translate(-1141.000000, -586.000000)">
		<g id="FILTRES_3_" transform="translate(946.000000, 586.000000)">
			<g id="Stacked-Group_3_" transform="translate(86.000000, 0.000000)">
				<g id="vcub" transform="translate(109.000000, 0.000000)">
					<g id="picto-velo">
						<path id="Fill-1" class="st0" d="M154.3,126.3c-0.3,0-0.5,0-0.8,0c0.2-0.3,0.4-0.7,0.4-0.7c-0.2,0-0.5,0-0.7,0.1l1.6-2.3
							l-3.7,0.1l-2.6,3.2c-0.3,0.1-0.5,0.2-0.8,0.3l-0.9-2.8l-2.1-6.4l1.4-3.1c0.1,1,0.6,4,1.1,6.4c0.1,0.4,0.2,0.7,0.4,1l0,0.3
							l0.2,0c0.4,0.6,0.9,0.9,1.4,1.1v0h0c0.9,0.3,1.7,0.2,1.7,0.2h0c0,0,3,0,5.6-0.3c0.8-0.1,1.4-0.3,1.8-0.6h0v0
							c1.1-0.7,1.5-1.6,1.5-1.7l0,0v0l0.2-11.4v-0.2l-0.2,0c-1.3,0-2.5,0.1-3.4,0.4h-0.1v0c-1.3,0.3-2.1,0.8-2.2,0.8l-1.9,0.8
							l-0.2,0v0.1l-1.3,0.6h-0.1v0l-4.3,1.8l1.5-3.3l0.2,0.1l0-0.6l0.9-2l-0.3-0.1c0.7-1.3,1.2-2.9,0.2-3.9
							c-0.1-0.4-0.3-0.8-0.7-1.1c-1.9-1.4-5,0.2-5.1,0.3c0,0-0.3,0.2-0.8,0.4c0.1-0.4,0-0.8,0-0.8c-0.3-1-1.5-0.9-2.2-0.6
							c-0.7,0.3-1.7,1.4-1.7,1.4s-1.8,0.9-2.7,1.3c-0.9,0.4-0.5,0.8-0.5,0.8c0,0.5,1,0.3,1,0.3s0.2-0.1,0.4-0.1
							c-0.6,0.3-1.2,0.6-1.6,0.8c-0.9,0.4-0.5,0.8-0.5,0.8c0,0.5,1,0.3,1,0.3s1.4-0.5,2.4-0.8c0.7-0.3,1.1-0.1,1.8-0.2l-1.8,1.4
							c0,0-0.5,0.3-0.2,0.6c0.2,0.2,0.5,0.1,0.5,0.1l1.8-1.5c0,0,0.1,0,0.2,0v0c0,0.6-1.1,1-1.1,1l-1.8,1.5c0,0-0.5,0.3-0.2,0.6
							c0.2,0.2,0.4,0.1,0.4,0.1l1.8-1.5c0,0,1,0.2,2-0.2c0.8-0.3,1-1.1,1-1.3c0.1-0.2,0.1-0.4,0.1-0.7c0.5-0.4,0.6-0.9,0.6-1.1
							c0,0,0,0,0,0l1.3-0.7c0.7-0.4,2.6-1.1,3.7-0.5c0,0.6-0.4,1.3-0.7,1.9l-0.1,1l-1.6,3.6l-2.8,2l-0.4-1l-0.9,0.4l1.3,3
							c-0.3,0.1-0.4,0.4-0.3,0.7l0.4,1c0,0,0.1,0.1,0.1,0.1l-9.1,20.6c-2.4,2.9-6.7,2.6-6.7,2.6c0,0-5-0.5-6.6-0.6l-0.3-0.7l-0.1-2
							l-0.6,0v0h0.1c1.6,0,1.5-0.8,1.5-0.8v-1.4h-2.4l-6.4-17.8l-0.6,0.2c0.8-0.5,1.3-1.1,1.6-1.3c0.7-0.3,2.5-0.3,3.6-0.3
							c1.1,0,1.1-1.1,1.1-1.1s-0.5-0.7-0.8-0.7c-0.3,0-5.7,0.2-5.7,0.2s-4.7-0.5-5.7-0.2c-1,0.3-1.1,2,2.2,3.4
							c1.2,0.5,2.1,0.5,2.8,0.3l3.5,9.6l-2.7,2.4c-3-2.9-7.1-4.6-11.6-4.6c-4.2,0-8.2,1-11.2,3.6l0,0.4c-2,3.1-5.6,3-4,3.1
							c1.6,0.1,4.5-2.2,4.5-2.2L89,130l0.3,0.4c-3.1,2.9-5.1,6.9-5.1,11.5c0,8.6,7.1,15.6,15.8,15.6c7.4,0,13.6-5.1,15.3-11.9
							c0.6,0,1.1,0.1,1.6,0.1c0.8,0.3,1.4,0.5,2.4,0.5c0.7,1.2,1.5,1.4,2.2,1.1v1.1l0.1,0.1l1.5,2.7l0.1,2.6l0.8,0l-0.1-2.6l0-0.1
							l0-0.1l-1.5-2.7v-1.4c0.2-0.2,0.3-0.4,0.5-0.6c0,0,0,0,0,0c8.5-0.1,12.4-6.8,12.6-7.1l0,0l0,0l4.8-10.9l5.7-3l0.7,2.2
							c-1.6,0.8-3,1.8-4.3,3.1c-3,3-4.7,6.8-4.9,10.8l1.1,0.2c0,0.1,0,0.3,0,0.4c0,8.6,7.1,15.6,15.8,15.6c8.7,0,15.8-7,15.8-15.6
							S163,126.3,154.3,126.3L154.3,126.3z M100,155.6c-7.6,0-13.8-6.1-13.8-13.7c0-4,1.8-7.7,4.6-10.2l2.5,1.3l5.2,6.2
							c0.1,0.1,0.2,0.2,0.5,0.2h0.1l0.7,0.7c-1.2,0.1-2.2,1.1-2.2,2.3c0,0.2,0,0.5,0.1,0.7c0,0.6,0.5,0.9,0.8,1.6
							c0.3,0.1,0.6,0.2,0.9,0.3c0.2,1.2,0.9,2.5,3.2,1.5c3.8-1.6,4-1.3,5.9-1.3c0.7,0,2.3,0.1,4.2,0.1c0.1,0.1,0.3,0.3,0.4,0.4
							C111.4,151.5,106.2,155.6,100,155.6L100,155.6z M119.6,144c0,0-1-0.2-2-0.2c-0.3,0-0.7,0.1-1.1,0.1l0.2-0.2
							c0-0.1-0.1-0.2-0.1-0.2l0,0c0-0.5,0.1-0.9,0.1-1.4c0-4.3-1.7-8.3-4.4-11.3l2.3-2.1l5.4,15C119.8,143.9,119.6,144,119.6,144
							L119.6,144z M123.4,144.3c-0.2-0.7-0.9-1.2-1.7-1.3v-0.3l-0.1-0.1l-0.5-0.8l5.7,0.5c0.1,0,1.5,0.1,3.2-0.3
							C128.4,143.1,126.2,144.1,123.4,144.3L123.4,144.3z M144.8,113l-1,2.3l-0.1,0l-0.5-1.2L144.8,113z M141.3,125.8l2.9-6.5
							l1.4,4.3L141.3,125.8z M154.3,155.6c-7.6,0-13.8-6.1-13.8-13.7c0-5.1,2.8-9.6,7-11.9l1.6,4.9l0,0.1l0,0.1l4,6.3
							c-0.3,0.3-0.5,0.8-0.5,1.3c0,1,0.8,1.9,1.9,1.9c1,0,1.9-0.8,1.9-1.9c0-1-0.8-1.9-1.9-1.9c-0.1,0-0.2,0-0.3,0l-4-6.4l-1-3
							l1.9-2.9c1-0.2,2-0.4,3.1-0.4c7.6,0,13.8,6.1,13.8,13.7C168.1,149.4,161.9,155.6,154.3,155.6L154.3,155.6z M90.5,126.7
							c-0.4-0.3-0.7-0.6-1-0.8c-0.1-0.1-0.1-0.1-0.2-0.2c-0.2-0.2-0.3-0.3-0.3-0.3s-0.3-0.3-0.9-0.2c0,0-0.1,0-0.1,0
							c-0.1,0-0.2,0.1-0.2,0.1c-0.1,0-0.2,0.1-0.3,0.2c0,0-0.1,0.1-0.1,0.1c-0.1,0.1-0.3,0.3-0.4,0.5c-1.1,1.5-1.8,3.9-1.8,3.9v0.1
							v0c0,0.1,0,0.1,0,0.3c0,0,0,0,0,0c0,0.2,0.1,0.3,0.2,0.4c0,0,0.1,0.1,0.1,0.1l0,0c0,0,0,0,0.1,0c0.5,0.1,1.3-0.5,1.3-0.5
							l1.6-1.2l1.7-1.4C90.4,128,91.3,127.4,90.5,126.7L90.5,126.7z M124.4,153.8c0,0,1.4,0,1.4,1v1.2h-3.6v-1.4
							c0,0-0.1-0.8,1.5-0.8H124.4z M150.7,122.1c-0.2,0-0.4,0-0.6-0.1c-0.3-0.1-0.5-0.3-0.7-0.5l-0.2-0.3c0,0-0.1-0.2-0.1-0.5
							c-0.5-2-0.8-4.4-1-5.6l4-1.7l3-1.3c0.2-0.1,0.9-0.4,1.9-0.7l0.6-0.2c0.3-0.1,0.6-0.1,0.9-0.1l-0.2,9.5
							c-0.1,0.2-0.3,0.4-0.7,0.6c-0.4,0.2-0.8,0.3-1.2,0.4c-2.5,0.3-5.3,0.3-5.4,0.3L150.7,122.1z"/>
					</g>
				</g>
			</g>
		</g>
	</g>
</g>
</svg>
