<svg xmlns="http://www.w3.org/2000/svg" viewBox="0 0 224 68"><defs><style>.cls-1{fill:#414140;}.cls-2{isolation:isolate;}.cls-3{fill:#fff;}</style></defs><title>Fichier 2</title><g id="Calque_2" data-name="Calque 2"><g id="Calque_1-2" data-name="Calque 1"><polygon class="cls-1" points="1.4 66.6 1.4 1.4 189.5 1.4 222.6 34.6 222.6 66.6 1.4 66.6"/><path class="cls-1" d="M188.9,2.9l32.4,32.4v30H2.9V2.9h186M190,0H0V68H224V34L190,0Z"/><g class="cls-2"><path class="cls-3" d="M32.27,42.71V27.84h9.07v1.58H34.26v4.67h6V35.7h-6v5.4h7.32v1.61Z"/><path class="cls-3" d="M44.91,42.71V27.84H47l5.68,9.34,1.7,3.08h.1c-.05-.75-.1-1.54-.16-2.34s-.08-1.61-.08-2.4V27.84H56.1V42.71H54l-5.7-9.36-1.71-3.07h-.09q.09,1.14.18,2.31c.05.78.08,1.56.08,2.34v7.78Z"/><path class="cls-3" d="M69.58,43a7.74,7.74,0,0,1-3.07-.59,7.62,7.62,0,0,1-2.45-1.61l1.2-1.31a6.56,6.56,0,0,0,2,1.35,5.73,5.73,0,0,0,2.36.51A3.83,3.83,0,0,0,72,40.66a2.12,2.12,0,0,0,.87-1.76,2,2,0,0,0-.76-1.64,3.9,3.9,0,0,0-.83-.51l-1-.48L68,35.34a11.49,11.49,0,0,1-1.13-.54,4.86,4.86,0,0,1-1-.77A3.76,3.76,0,0,1,65.12,33a3.46,3.46,0,0,1-.29-1.44,3.52,3.52,0,0,1,.37-1.57,3.86,3.86,0,0,1,1-1.25,4.85,4.85,0,0,1,1.56-.83,6.23,6.23,0,0,1,2-.3,6.6,6.6,0,0,1,2.61.51,6.67,6.67,0,0,1,2,1.33l-1.08,1.23a5.67,5.67,0,0,0-1.59-1,5,5,0,0,0-2-.37,3.5,3.5,0,0,0-2.12.58,1.85,1.85,0,0,0-.81,1.6,1.71,1.71,0,0,0,.23.91,2.38,2.38,0,0,0,.61.66,5,5,0,0,0,.84.5c.31.14.62.28.94.4l2.23.91A10.67,10.67,0,0,1,73,35.4a4.67,4.67,0,0,1,1,.81,3.58,3.58,0,0,1,.68,1.09,3.81,3.81,0,0,1,.25,1.44,3.74,3.74,0,0,1-.37,1.66,4.15,4.15,0,0,1-1.06,1.35,5.41,5.41,0,0,1-1.68.91A7.32,7.32,0,0,1,69.58,43Z"/><path class="cls-3" d="M75.93,42.71l5.32-14.87h2.26l5.32,14.87H86.7l-1.49-4.53H79.48L78,42.71Zm4.8-8.32L80,36.66h4.73L84,34.39c-.29-.83-.56-1.66-.81-2.48s-.51-1.67-.77-2.53h-.1c-.24.86-.48,1.7-.74,2.53S81,33.56,80.73,34.39Z"/><path class="cls-3" d="M93.6,42.71l-5-14.87H90.7l2.52,8c.28.9.54,1.72.75,2.48s.48,1.57.78,2.44h.1c.28-.87.54-1.69.76-2.44s.47-1.58.75-2.48l2.52-8h2l-5,14.87Z"/><path class="cls-3" d="M108.63,43a6.71,6.71,0,0,1-2.72-.54,6,6,0,0,1-2.12-1.55,7.3,7.3,0,0,1-1.38-2.45,9.91,9.91,0,0,1-.49-3.23,9.66,9.66,0,0,1,.49-3.21,7,7,0,0,1,1.38-2.41,5.9,5.9,0,0,1,2.12-1.5,6.87,6.87,0,0,1,2.72-.53,6.71,6.71,0,0,1,2.72.54,6,6,0,0,1,2.14,1.52,6.83,6.83,0,0,1,1.39,2.4,9.63,9.63,0,0,1,.49,3.19,9.91,9.91,0,0,1-.49,3.23,7.15,7.15,0,0,1-1.39,2.45,6.1,6.1,0,0,1-2.14,1.55A6.71,6.71,0,0,1,108.63,43Zm0-1.65a4.29,4.29,0,0,0,1.91-.43A4.21,4.21,0,0,0,112,39.66a6,6,0,0,0,1-1.93,8.89,8.89,0,0,0,.33-2.52,8.75,8.75,0,0,0-.33-2.5,5.63,5.63,0,0,0-1-1.88,4.14,4.14,0,0,0-3.37-1.61,4.21,4.21,0,0,0-1.9.42,4.32,4.32,0,0,0-1.47,1.19,5.62,5.62,0,0,0-.94,1.88,8.4,8.4,0,0,0-.34,2.5,8.54,8.54,0,0,0,.34,2.52,6,6,0,0,0,.94,1.93,4.09,4.09,0,0,0,3.37,1.67Z"/><path class="cls-3" d="M118.75,42.71V27.84h2V42.71Z"/><path class="cls-3" d="M125.05,42.71V27.84H130a11,11,0,0,1,2.22.21,4.68,4.68,0,0,1,1.75.72,3.55,3.55,0,0,1,1.14,1.29,4.26,4.26,0,0,1,.4,1.95,4,4,0,0,1-1,2.79,5,5,0,0,1-2.59,1.43l4,6.48h-2.26l-3.78-6.28H127v6.28Zm2-7.82h2.64a4.75,4.75,0,0,0,2.83-.72,2.47,2.47,0,0,0,1-2.16,2.22,2.22,0,0,0-1-2.07,5.61,5.61,0,0,0-2.83-.58H127Z"/><path class="cls-3" d="M143.49,42.71V27.84H148a12,12,0,0,1,2.41.22,5.22,5.22,0,0,1,1.86.74,3.56,3.56,0,0,1,1.2,1.35,4.45,4.45,0,0,1,.43,2.06,4.58,4.58,0,0,1-.42,2,3.75,3.75,0,0,1-1.19,1.43,5.33,5.33,0,0,1-1.83.85,9.13,9.13,0,0,1-2.36.29h-2.59v5.89Zm2-7.44h2.35a5.19,5.19,0,0,0,3.06-.73,2.71,2.71,0,0,0,1-2.33,2.38,2.38,0,0,0-1-2.23,6.14,6.14,0,0,0-3.11-.62h-2.25Z"/><path class="cls-3" d="M157.06,42.71V27.84h2V41.1h6.88v1.61Z"/><path class="cls-3" d="M173.6,43a7.67,7.67,0,0,1-2.24-.32,4.43,4.43,0,0,1-1.8-1.09,5.19,5.19,0,0,1-1.18-2,9,9,0,0,1-.44-3V27.84h2v8.77a7.64,7.64,0,0,0,.29,2.25,3.84,3.84,0,0,0,.78,1.45,2.84,2.84,0,0,0,1.16.78,4.5,4.5,0,0,0,2.9,0,3,3,0,0,0,1.18-.78,3.85,3.85,0,0,0,.79-1.45,7.64,7.64,0,0,0,.29-2.25V27.84h1.92v8.73a9,9,0,0,1-.44,3,5.19,5.19,0,0,1-1.18,2,4.46,4.46,0,0,1-1.79,1.09A7.61,7.61,0,0,1,173.6,43Z"/><path class="cls-3" d="M187.6,43a7.81,7.81,0,0,1-3.07-.59,7.57,7.57,0,0,1-2.44-1.61l1.2-1.31a6.63,6.63,0,0,0,2,1.35,5.74,5.74,0,0,0,2.37.51,3.85,3.85,0,0,0,2.42-.67,2.14,2.14,0,0,0,.11-3.4,4.17,4.17,0,0,0-.83-.51l-1-.48L186,35.34a11.36,11.36,0,0,1-1.12-.54,4.4,4.4,0,0,1-1-.77,3.6,3.6,0,0,1-.75-1.08,3.46,3.46,0,0,1-.28-1.44,3.39,3.39,0,0,1,.37-1.57,3.73,3.73,0,0,1,1-1.25,4.85,4.85,0,0,1,1.56-.83,6.21,6.21,0,0,1,2-.3,6.66,6.66,0,0,1,4.66,1.84l-1.08,1.23a5.58,5.58,0,0,0-1.6-1,5,5,0,0,0-2-.37,3.54,3.54,0,0,0-2.12.58,1.87,1.87,0,0,0-.8,1.6,1.71,1.71,0,0,0,.23.91,2.24,2.24,0,0,0,.61.66,4.34,4.34,0,0,0,.84.5c.3.14.61.28.93.4l2.23.91a10,10,0,0,1,1.27.62,4.45,4.45,0,0,1,1,.81,3.61,3.61,0,0,1,.69,1.09,4,4,0,0,1,.25,1.44,3.88,3.88,0,0,1-.37,1.66,4.18,4.18,0,0,1-1.07,1.35,5.19,5.19,0,0,1-1.68.91A7.27,7.27,0,0,1,187.6,43Z"/></g></g></g></svg>